<svg width="243" height="213" viewBox="0 0 243 213" fill="none" xmlns="http://www.w3.org/2000/svg">
<rect width="243" height="213" fill="#E5E5E5"/>
<g clip-path="url(#clip0_0_1)">
<path d="M121.15 17.7383C176.818 17.7383 222.108 57.5254 222.108 106.43C222.108 155.335 176.818 195.122 121.15 195.122C65.4816 195.122 20.1917 155.335 20.1917 106.43C20.1917 57.5254 65.4816 17.7383 121.15 17.7383ZM121.15 0C54.2449 0 0 47.654 0 106.43C0 165.206 54.2449 212.86 121.15 212.86C188.055 212.86 242.3 165.206 242.3 106.43C242.3 47.654 188.055 0 121.15 0ZM121.15 53.215C87.7025 53.215 60.575 77.0376 60.575 106.43C60.575 129.942 77.9297 149.889 102.008 156.922C105.037 157.419 106.006 155.769 106.006 154.359V144.452C89.1563 147.672 85.643 138.182 85.643 138.182C82.8969 132.035 78.9191 130.394 78.9191 130.394C73.427 127.086 79.3331 127.157 79.3331 127.157C85.4208 127.53 88.6212 132.647 88.6212 132.647C94.0225 140.78 102.786 138.43 106.249 137.073C106.794 133.632 108.359 131.29 110.095 129.96C96.6373 128.612 82.5032 124.044 82.5032 103.663C82.5032 97.8535 84.8656 93.1085 88.7424 89.3835C88.1164 88.0265 86.0367 82.6074 89.3279 75.2815C89.3279 75.2815 94.4162 73.8535 105.986 80.736C110.822 79.5564 116.001 78.9711 121.15 78.9445C126.299 78.9622 131.478 79.5564 136.324 80.736C147.894 73.8535 152.962 75.2815 152.962 75.2815C156.263 82.6074 154.184 88.0265 153.568 89.3657C157.455 93.0908 159.797 97.8358 159.797 103.645C159.797 124.089 145.622 128.585 132.134 129.898C134.315 131.547 136.294 134.785 136.294 139.751V154.35C136.294 155.769 137.263 157.428 140.332 156.904C164.39 149.871 181.725 129.933 181.725 106.43C181.725 77.0376 154.598 53.215 121.15 53.215V53.215Z" fill="black"/>
<path d="M121.531 108.586C121.32 110.391 120.652 111.785 119.527 112.77C118.41 113.746 116.922 114.234 115.062 114.234C113.047 114.234 111.43 113.512 110.211 112.066C109 110.621 108.395 108.688 108.395 106.266V104.625C108.395 103.039 108.676 101.645 109.238 100.441C109.809 99.2383 110.613 98.3164 111.652 97.6758C112.691 97.0273 113.895 96.7031 115.262 96.7031C117.074 96.7031 118.527 97.2109 119.621 98.2266C120.715 99.2344 121.352 100.633 121.531 102.422H119.27C119.074 101.062 118.648 100.078 117.992 99.4688C117.344 98.8594 116.434 98.5547 115.262 98.5547C113.824 98.5547 112.695 99.0859 111.875 100.148C111.062 101.211 110.656 102.723 110.656 104.684V106.336C110.656 108.188 111.043 109.66 111.816 110.754C112.59 111.848 113.672 112.395 115.062 112.395C116.312 112.395 117.27 112.113 117.934 111.551C118.605 110.98 119.051 109.992 119.27 108.586H121.531ZM131.598 109.195H128.504L127.566 114H125.891L126.828 109.195H124.027V107.59H127.133L127.941 103.441H124.918V101.812H128.258L129.219 96.9375H130.895L129.934 101.812H133.027L133.988 96.9375H135.676L134.715 101.812H137.105V103.441H134.398L133.59 107.59H136.227V109.195H133.285L132.348 114H130.66L131.598 109.195ZM128.809 107.59H131.902L132.711 103.441H129.617L128.809 107.59Z" fill="black"/>
</g>
<defs>
<clipPath id="clip0_0_1">
<rect width="242.3" height="212.86" fill="white"/>
</clipPath>
</defs>
</svg>
