<svg width="243" height="213" viewBox="0 0 243 213" fill="none" xmlns="http://www.w3.org/2000/svg">
<rect width="243" height="213" fill="#E5E5E5"/>
<g clip-path="url(#clip0_0_1)">
<path d="M121.15 17.7383C176.818 17.7383 222.108 57.5254 222.108 106.43C222.108 155.335 176.818 195.122 121.15 195.122C65.4816 195.122 20.1917 155.335 20.1917 106.43C20.1917 57.5254 65.4816 17.7383 121.15 17.7383ZM121.15 0C54.2449 0 0 47.654 0 106.43C0 165.206 54.2449 212.86 121.15 212.86C188.055 212.86 242.3 165.206 242.3 106.43C242.3 47.654 188.055 0 121.15 0ZM121.15 53.215C87.7025 53.215 60.575 77.0376 60.575 106.43C60.575 129.942 77.9297 149.889 102.008 156.922C105.037 157.419 106.006 155.769 106.006 154.359V144.452C89.1563 147.672 85.643 138.182 85.643 138.182C82.8969 132.035 78.9191 130.394 78.9191 130.394C73.427 127.086 79.3331 127.157 79.3331 127.157C85.4208 127.53 88.6212 132.647 88.6212 132.647C94.0225 140.78 102.786 138.43 106.249 137.073C106.794 133.632 108.359 131.29 110.095 129.96C96.6373 128.612 82.5032 124.044 82.5032 103.663C82.5032 97.8535 84.8656 93.1085 88.7424 89.3835C88.1164 88.0265 86.0367 82.6074 89.3279 75.2815C89.3279 75.2815 94.4162 73.8535 105.986 80.736C110.822 79.5564 116.001 78.9711 121.15 78.9445C126.299 78.9622 131.478 79.5564 136.324 80.736C147.894 73.8535 152.962 75.2815 152.962 75.2815C156.263 82.6074 154.184 88.0265 153.568 89.3657C157.455 93.0908 159.797 97.8358 159.797 103.645C159.797 124.089 145.622 128.585 132.134 129.898C134.315 131.547 136.294 134.785 136.294 139.751V154.35C136.294 155.769 137.263 157.428 140.332 156.904C164.39 149.871 181.725 129.933 181.725 106.43C181.725 77.0376 154.598 53.215 121.15 53.215V53.215Z" fill="black"/>
<path d="M104.047 114H101.785V106.113H93.1836V114H90.9336V96.9375H93.1836V104.273H101.785V96.9375H104.047V114ZM119.48 98.7891H113.996V114H111.758V98.7891H106.285V96.9375H119.48V98.7891ZM124.918 96.9375L130.496 110.859L136.074 96.9375H138.992V114H136.742V107.355L136.953 100.184L131.352 114H129.629L124.039 100.219L124.262 107.355V114H122.012V96.9375H124.918ZM145.227 112.16H153.312V114H142.965V96.9375H145.227V112.16Z" fill="black"/>
</g>
<defs>
<clipPath id="clip0_0_1">
<rect width="242.3" height="212.86" fill="white"/>
</clipPath>
</defs>
</svg>
