<svg width="243" height="213" viewBox="0 0 243 213" fill="none" xmlns="http://www.w3.org/2000/svg">
<rect width="243" height="213" fill="#E5E5E5"/>
<g clip-path="url(#clip0_0_1)">
<path d="M121.15 17.7383C176.818 17.7383 222.108 57.5254 222.108 106.43C222.108 155.335 176.818 195.122 121.15 195.122C65.4816 195.122 20.1917 155.335 20.1917 106.43C20.1917 57.5254 65.4816 17.7383 121.15 17.7383ZM121.15 0C54.2449 0 0 47.654 0 106.43C0 165.206 54.2449 212.86 121.15 212.86C188.055 212.86 242.3 165.206 242.3 106.43C242.3 47.654 188.055 0 121.15 0ZM121.15 53.215C87.7025 53.215 60.575 77.0376 60.575 106.43C60.575 129.942 77.9297 149.889 102.008 156.922C105.037 157.419 106.006 155.769 106.006 154.359V144.452C89.1563 147.672 85.643 138.182 85.643 138.182C82.8969 132.035 78.9191 130.394 78.9191 130.394C73.427 127.086 79.3331 127.157 79.3331 127.157C85.4208 127.53 88.6212 132.647 88.6212 132.647C94.0225 140.78 102.786 138.43 106.249 137.073C106.794 133.632 108.359 131.29 110.095 129.96C96.6373 128.612 82.5032 124.044 82.5032 103.663C82.5032 97.8535 84.8656 93.1085 88.7424 89.3835C88.1164 88.0265 86.0367 82.6074 89.3279 75.2815C89.3279 75.2815 94.4162 73.8535 105.986 80.736C110.822 79.5564 116.001 78.9711 121.15 78.9445C126.299 78.9622 131.478 79.5564 136.324 80.736C147.894 73.8535 152.962 75.2815 152.962 75.2815C156.263 82.6074 154.184 88.0265 153.568 89.3657C157.455 93.0908 159.797 97.8358 159.797 103.645C159.797 124.089 145.622 128.585 132.134 129.898C134.315 131.547 136.294 134.785 136.294 139.751V154.35C136.294 155.769 137.263 157.428 140.332 156.904C164.39 149.871 181.725 129.933 181.725 106.43C181.725 77.0376 154.598 53.215 121.15 53.215V53.215Z" fill="black"/>
<path d="M104.129 97.9375H106.391V110.02C106.391 111.652 105.898 112.93 104.914 113.852C103.938 114.773 102.633 115.234 101 115.234C99.3047 115.234 97.9844 114.801 97.0391 113.934C96.0938 113.066 95.6211 111.852 95.6211 110.289H97.8711C97.8711 111.266 98.1367 112.027 98.668 112.574C99.207 113.121 99.9844 113.395 101 113.395C101.93 113.395 102.68 113.102 103.25 112.516C103.828 111.93 104.121 111.109 104.129 110.055V97.9375ZM117.711 115C117.586 114.75 117.484 114.305 117.406 113.664C116.398 114.711 115.195 115.234 113.797 115.234C112.547 115.234 111.52 114.883 110.715 114.18C109.918 113.469 109.52 112.57 109.52 111.484C109.52 110.164 110.02 109.141 111.02 108.414C112.027 107.68 113.441 107.312 115.262 107.312H117.371V106.316C117.371 105.559 117.145 104.957 116.691 104.512C116.238 104.059 115.57 103.832 114.688 103.832C113.914 103.832 113.266 104.027 112.742 104.418C112.219 104.809 111.957 105.281 111.957 105.836H109.777C109.777 105.203 110 104.594 110.445 104.008C110.898 103.414 111.508 102.945 112.273 102.602C113.047 102.258 113.895 102.086 114.816 102.086C116.277 102.086 117.422 102.453 118.25 103.188C119.078 103.914 119.508 104.918 119.539 106.199V112.035C119.539 113.199 119.688 114.125 119.984 114.812V115H117.711ZM114.113 113.348C114.793 113.348 115.438 113.172 116.047 112.82C116.656 112.469 117.098 112.012 117.371 111.449V108.848H115.672C113.016 108.848 111.688 109.625 111.688 111.18C111.688 111.859 111.914 112.391 112.367 112.773C112.82 113.156 113.402 113.348 114.113 113.348ZM126.934 112.059L130.074 102.32H132.289L127.742 115H126.09L121.496 102.32H123.711L126.934 112.059ZM142.016 115C141.891 114.75 141.789 114.305 141.711 113.664C140.703 114.711 139.5 115.234 138.102 115.234C136.852 115.234 135.824 114.883 135.02 114.18C134.223 113.469 133.824 112.57 133.824 111.484C133.824 110.164 134.324 109.141 135.324 108.414C136.332 107.68 137.746 107.312 139.566 107.312H141.676V106.316C141.676 105.559 141.449 104.957 140.996 104.512C140.543 104.059 139.875 103.832 138.992 103.832C138.219 103.832 137.57 104.027 137.047 104.418C136.523 104.809 136.262 105.281 136.262 105.836H134.082C134.082 105.203 134.305 104.594 134.75 104.008C135.203 103.414 135.812 102.945 136.578 102.602C137.352 102.258 138.199 102.086 139.121 102.086C140.582 102.086 141.727 102.453 142.555 103.188C143.383 103.914 143.812 104.918 143.844 106.199V112.035C143.844 113.199 143.992 114.125 144.289 114.812V115H142.016ZM138.418 113.348C139.098 113.348 139.742 113.172 140.352 112.82C140.961 112.469 141.402 112.012 141.676 111.449V108.848H139.977C137.32 108.848 135.992 109.625 135.992 111.18C135.992 111.859 136.219 112.391 136.672 112.773C137.125 113.156 137.707 113.348 138.418 113.348Z" fill="black"/>
</g>
<defs>
<clipPath id="clip0_0_1">
<rect width="242.3" height="212.86" fill="white"/>
</clipPath>
</defs>
</svg>
