<svg width="52" height="53" viewBox="0 0 52 53" fill="none" xmlns="http://www.w3.org/2000/svg">
<g clip-path="url(#clip0_2_175)">
<path d="M9.42874 45.0012V6.42874H48.0012V45.0012H9.42874Z" fill="#FFD600"/>
<path d="M34.6487 35.3013C35.3902 36.5057 36.1959 37.6596 37.9028 37.6596C39.3364 37.6596 40.0885 36.9471 40.0885 35.9614C40.0885 34.7817 39.3107 34.3627 37.7335 33.6759L36.8688 33.3074C34.3734 32.2488 32.7137 30.9223 32.7137 28.1204C32.7137 25.5382 34.6905 23.5732 37.7795 23.5732C39.9793 23.5732 41.5597 24.335 42.6997 26.33L40.006 28.0519C39.4135 26.9932 38.7728 26.5765 37.7795 26.5765C36.7659 26.5765 36.1241 27.2161 36.1241 28.0519C36.1241 29.0847 36.767 29.5026 38.251 30.1423L39.1157 30.5108C42.0568 31.7634 43.7154 33.0427 43.7154 35.9185C43.7154 39.0172 41.2682 40.7154 37.9831 40.7154C34.7698 40.7154 32.9451 39.1029 31.9294 37.1067L34.6487 35.3013ZM22.2348 35.3892C22.777 36.3599 23.6009 37.1067 24.786 37.1067C25.9196 37.1067 26.5721 36.6589 26.5721 34.9178V23.5721H30.1433V35.4663C30.1433 39.0739 28.0507 40.7154 24.9949 40.7154C22.2338 40.7154 20.2408 38.8447 19.4287 37.1067L22.2348 35.3892Z" fill="#000001"/>
</g>
<defs>
<clipPath id="clip0_2_175">
<rect width="51.432" height="52.471" fill="white"/>
</clipPath>
</defs>
</svg>
