<svg width="56" height="44" viewBox="0 0 56 44" fill="none" xmlns="http://www.w3.org/2000/svg">
<g clip-path="url(#clip0_2_217)">
<g clip-path="url(#clip1_2_217)">
<path d="M54.0398 12.9842C54.0398 12.2576 53.8447 11.6024 53.4394 11.0544C53.0491 10.5065 52.4636 10.0538 51.683 9.69649C45.1977 6.73034 38.6974 3.76425 32.2121 0.798104C30.4556 -2.02934e-05 28.7742 0.023814 27.0328 0.83383C24.4507 2.03699 11.5101 7.92156 7.66703 9.69649C6.07569 10.4231 5.31009 11.5429 5.31009 12.9962V30.912C5.31009 31.6267 5.50524 32.2581 5.88055 32.806C6.2709 33.3659 6.87139 33.8424 7.66703 34.2117C11.5252 35.9866 24.4507 41.8593 27.0328 43.0743C28.7742 43.8842 30.4706 43.9199 32.2121 43.1101C38.6974 40.132 45.1977 37.1778 51.683 34.2117C52.4936 33.8424 53.0791 33.3778 53.4694 32.806C53.8447 32.2581 54.0398 31.6267 54.0398 30.912V12.9842Z" fill="#9A4993"/>
<path d="M29.7351 21.8827L5.85049 32.7942C6.24085 33.3541 6.84134 33.8305 7.63698 34.1999C11.4951 35.9747 24.4207 41.8474 27.0028 43.0625C28.7442 43.8725 30.4406 43.9083 32.182 43.0982C38.6674 40.1202 45.1677 37.166 51.653 34.1999C52.4636 33.8305 53.0491 33.366 53.4394 32.7942L29.7351 21.8827Z" fill="#6A1577"/>
<path d="M22.6642 25.1108C24.0604 27.0406 26.6726 28.3391 29.66 28.3391C32.6775 28.3391 35.3047 27.0287 36.6858 25.0751L29.7351 21.8827L22.6642 25.1108Z" fill="#6A1577"/>
<path d="M54.0399 12.9843C54.0399 12.2576 53.8447 11.6025 53.4394 11.0545L29.735 21.8827L53.4694 32.7943C53.8447 32.2463 54.0399 31.615 54.0399 30.9002V12.9843Z" fill="#813084"/>
<path d="M36.6857 25.0751C35.3046 27.0168 32.6774 28.3391 29.66 28.3391C26.6575 28.3391 24.0454 27.0406 22.6643 25.1108C21.9887 24.1698 21.5984 23.0977 21.5984 21.9422C21.5984 18.4043 25.2013 15.5454 29.66 15.5454C32.6324 15.5454 35.2295 16.8319 36.6257 18.7378L43.6664 15.5215C40.8591 11.6859 35.6348 9.10092 29.645 9.10092C20.6976 9.10092 13.4618 14.8545 13.4618 21.9422C13.4618 24.2651 14.2424 26.457 15.6085 28.3391C18.4008 32.1867 23.6551 34.7835 29.66 34.7835C35.6799 34.7835 40.9342 32.1748 43.7264 28.3033L36.6857 25.0751ZM45.5879 18.9046H43.9816V25.0632H45.5879V18.9046ZM49.1458 18.9046H47.5395V25.0632H49.1458V18.9046Z" fill="white"/>
<path d="M50.4518 19.941H42.6907V21.2156H50.4518V19.941ZM50.4518 22.7522H42.6907V24.0268H50.4518V22.7522Z" fill="white"/>
</g>
</g>
<defs>
<clipPath id="clip0_2_217">
<rect width="55.352" height="43.919" fill="white"/>
</clipPath>
<clipPath id="clip1_2_217">
<rect width="55.35" height="43.92" fill="white" transform="translate(2)"/>
</clipPath>
</defs>
</svg>
