<svg width="221" height="66" viewBox="0 0 221 66" fill="none" xmlns="http://www.w3.org/2000/svg">
<g clip-path="url(#clip0_2_71)">
<path d="M113.227 28.4922H115.018V38.0571C115.018 39.3498 114.628 40.361 113.849 41.0908C113.076 41.8206 112.043 42.1855 110.75 42.1855C109.408 42.1855 108.363 41.8423 107.614 41.1558C106.866 40.4692 106.492 39.5075 106.492 38.2705H108.273C108.273 39.0436 108.483 39.6466 108.904 40.0796C109.331 40.5125 109.946 40.729 110.75 40.729C111.486 40.729 112.08 40.4971 112.531 40.0332C112.989 39.5693 113.221 38.9199 113.227 38.085V28.4922ZM117.328 36.8882C117.328 35.9048 117.519 35.0203 117.903 34.2349C118.292 33.4494 118.831 32.8433 119.517 32.4165C120.21 31.9897 120.998 31.7764 121.883 31.7764C123.25 31.7764 124.354 32.2495 125.195 33.1958C126.042 34.1421 126.466 35.4007 126.466 36.9717V37.0923C126.466 38.0695 126.277 38.9478 125.9 39.7271C125.529 40.5002 124.994 41.1032 124.295 41.5361C123.602 41.9691 122.804 42.1855 121.901 42.1855C120.541 42.1855 119.437 41.7124 118.589 40.7661C117.748 39.8198 117.328 38.5674 117.328 37.0088V36.8882ZM119.053 37.0923C119.053 38.2056 119.31 39.0993 119.823 39.7734C120.343 40.4476 121.035 40.7847 121.901 40.7847C122.773 40.7847 123.466 40.4445 123.979 39.7642C124.493 39.0776 124.75 38.119 124.75 36.8882C124.75 35.7873 124.487 34.8966 123.961 34.2163C123.441 33.5298 122.749 33.1865 121.883 33.1865C121.035 33.1865 120.352 33.5236 119.833 34.1978C119.313 34.8719 119.053 35.8368 119.053 37.0923ZM125.111 28.0469C125.111 28.7148 124.92 29.256 124.536 29.6704C124.159 30.0848 123.686 30.292 123.117 30.292C122.863 30.292 122.644 30.2611 122.458 30.1992C122.272 30.1374 122.028 30.0106 121.725 29.8188C121.428 29.6271 121.212 29.5127 121.076 29.4756C120.946 29.4323 120.794 29.4106 120.621 29.4106C120.368 29.4106 120.151 29.5096 119.972 29.7075C119.792 29.8993 119.703 30.1466 119.703 30.4497L118.552 30.3848C118.552 29.723 118.738 29.1756 119.109 28.7427C119.486 28.3097 119.962 28.0933 120.538 28.0933C120.754 28.0933 120.949 28.1242 121.122 28.186C121.295 28.2479 121.53 28.3685 121.827 28.5479C122.124 28.7272 122.35 28.8447 122.504 28.9004C122.665 28.9561 122.841 28.9839 123.033 28.9839C123.299 28.9839 123.519 28.8787 123.692 28.6685C123.871 28.4582 123.961 28.2139 123.961 27.9355L125.111 28.0469ZM137.098 37.0923C137.098 38.62 136.748 39.8507 136.049 40.7847C135.35 41.7186 134.404 42.1855 133.21 42.1855C131.992 42.1855 131.033 41.799 130.334 41.0259V45.8594H128.618V31.9619H130.186L130.27 33.0752C130.968 32.2093 131.939 31.7764 133.183 31.7764C134.389 31.7764 135.341 32.231 136.04 33.1401C136.745 34.0493 137.098 35.3141 137.098 36.9346V37.0923ZM135.381 36.8975C135.381 35.7656 135.14 34.8719 134.658 34.2163C134.175 33.5607 133.514 33.2329 132.672 33.2329C131.633 33.2329 130.854 33.6937 130.334 34.6152V39.4116C130.848 40.327 131.633 40.7847 132.691 40.7847C133.514 40.7847 134.166 40.46 134.648 39.8105C135.137 39.1549 135.381 38.1839 135.381 36.8975ZM143.453 42.1855C142.092 42.1855 140.985 41.7402 140.131 40.8496C139.278 39.9528 138.851 38.756 138.851 37.2593V36.9438C138.851 35.9481 139.04 35.0605 139.417 34.2812C139.8 33.4958 140.332 32.8835 141.013 32.4443C141.699 31.999 142.441 31.7764 143.239 31.7764C144.544 31.7764 145.559 32.2062 146.282 33.0659C147.006 33.9256 147.368 35.1564 147.368 36.7583V37.4727H140.567C140.592 38.4622 140.88 39.2632 141.43 39.8755C141.987 40.4816 142.692 40.7847 143.545 40.7847C144.152 40.7847 144.665 40.661 145.085 40.4136C145.506 40.1662 145.874 39.8384 146.189 39.4302L147.238 40.2466C146.397 41.5392 145.135 42.1855 143.453 42.1855ZM143.239 33.1865C142.547 33.1865 141.965 33.4401 141.495 33.9473C141.025 34.4482 140.734 35.1533 140.623 36.0625H145.651V35.9326C145.602 35.0605 145.367 34.3864 144.946 33.9102C144.526 33.4277 143.957 33.1865 143.239 33.1865ZM151.227 42H149.511V31.9619H151.227V42ZM149.372 29.2993C149.372 29.021 149.455 28.786 149.622 28.5942C149.795 28.4025 150.049 28.3066 150.383 28.3066C150.717 28.3066 150.97 28.4025 151.144 28.5942C151.317 28.786 151.403 29.021 151.403 29.2993C151.403 29.5776 151.317 29.8096 151.144 29.9951C150.97 30.1807 150.717 30.2734 150.383 30.2734C150.049 30.2734 149.795 30.1807 149.622 29.9951C149.455 29.8096 149.372 29.5776 149.372 29.2993ZM164.633 42H162.842L156.042 31.5908V42H154.251V28.4922H156.042L162.861 38.9478V28.4922H164.633V42ZM175.422 38.4746H169.763L168.492 42H166.655L171.813 28.4922H173.372L178.54 42H176.712L175.422 38.4746ZM170.301 37.0088H174.894L172.593 30.6909L170.301 37.0088Z" fill="black"/>
<g filter="url(#filter0_dd_2_71)">
<g filter="url(#filter1_di_2_71)">
<path d="M72.0945 2.4071C77.6842 12.5411 70.4752 35.9756 57.5944 42.4033C44.7135 48.8311 19.33 41.6608 13.7403 31.5268C8.15055 21.3927 34.6638 31.9081 47.5446 25.4803C60.4255 19.0526 66.5048 -7.72694 72.0945 2.4071Z" fill="#86209F" fill-opacity="0.84"/>
</g>
<g filter="url(#filter2_b_2_71)">
<path d="M72.484 47.4888C72.496 54.3483 66.6594 59.9193 59.4476 59.9319C52.2358 59.9445 46.3798 54.3939 46.3678 47.5344C46.3559 40.6749 52.1925 35.1039 59.4042 35.0913C66.616 35.0787 72.472 40.6293 72.484 47.4888Z" fill="white"/>
<path d="M33.4034 42.3738C33.4116 47.0189 26.1908 50.7971 17.2754 50.8127C8.35994 50.8283 1.126 47.0753 1.11788 42.4302C1.10977 37.7852 7.49439 34.4489 16.4098 34.4333C25.3252 34.4178 33.3953 37.7288 33.4034 42.3738Z" fill="white"/>
<path d="M55.2013 42.3358C55.2094 46.9808 47.9887 50.759 39.0732 50.7746C30.1578 50.7902 22.9239 47.0372 22.9158 42.3922C22.9077 37.7471 30.1284 33.9689 39.0439 33.9533C47.9593 33.9378 55.1932 37.6907 55.2013 42.3358Z" fill="white"/>
<path d="M86.4676 47.4644C86.4796 54.3239 80.689 59.8948 73.534 59.9073C66.379 59.9198 60.569 54.3692 60.557 47.5096C60.5451 40.6501 66.3356 35.0792 73.4906 35.0667C80.6456 35.0542 86.4556 40.6048 86.4676 47.4644Z" fill="white"/>
<path d="M36.0928 51.5622C36.1009 56.2073 28.0515 59.9869 18.114 60.0043C8.17642 60.0216 0.113854 56.2701 0.105739 51.6251C0.0976248 46.98 8.14703 43.2004 18.0846 43.183C28.0221 43.1656 36.0847 46.9171 36.0928 51.5622Z" fill="white"/>
<path d="M52.1256 47.5244C52.1376 54.3839 46.347 59.9548 39.192 59.9673C32.037 59.9798 26.2271 54.4291 26.2151 47.5696C26.2031 40.7101 31.9937 35.1392 39.1487 35.1267C46.3037 35.1142 52.1136 40.6648 52.1256 47.5244Z" fill="white"/>
<path d="M36.0857 47.5524C36.0976 54.4119 30.2611 59.9829 23.0493 59.9955C15.8375 60.0081 9.98147 54.4575 9.96948 47.598C9.9575 40.7385 15.7941 35.1675 23.0059 35.1549C30.2177 35.1423 36.0737 40.6928 36.0857 47.5524Z" fill="white"/>
<path d="M95.9342 51.4577C95.9423 56.1027 87.8008 59.8825 77.7497 59.9001C67.6986 59.9177 59.544 56.1663 59.5358 51.5212C59.5277 46.8762 67.6692 43.0964 77.7203 43.0788C87.7715 43.0613 95.9261 46.8126 95.9342 51.4577Z" fill="white"/>
<path d="M59.5102 36.9493C59.5073 35.2843 59.1525 33.637 58.4669 32.1052C57.7812 30.5734 56.7788 29.1884 55.5191 28.0325C54.2594 26.8767 52.7683 25.9736 51.1342 25.3768C49.5001 24.7801 47.7566 24.502 46.0071 24.5591C44.2577 24.6161 42.5381 25.0071 40.9506 25.7088C39.3631 26.4105 37.9401 27.4087 36.7661 28.6438C35.5922 29.879 34.6912 31.3261 34.1169 32.8989C33.5426 34.4718 33.3066 36.1384 33.4229 37.7997L46.4521 36.9721L59.5102 36.9493Z" fill="white"/>
<path d="M39.1544 38.4518C39.1515 36.7999 38.7967 35.1656 38.1111 33.6459C37.4255 32.1261 36.4231 30.7521 35.1634 29.6053C33.9037 28.4586 32.4126 27.5626 30.7785 26.9706C29.1445 26.3786 27.4009 26.1027 25.6515 26.1593C23.902 26.2159 22.1825 26.6039 20.5949 27.3001C19.0074 27.9963 17.5844 28.9866 16.4104 30.2121C15.2364 31.4375 14.3355 32.8732 13.7611 34.4337C13.1868 35.9942 12.9507 37.6477 13.067 39.2958L26.0963 38.4746L39.1544 38.4518Z" fill="white"/>
<path d="M75.9728 38.3875C78.9209 38.3823 81.4019 36.0869 80.2674 33.5722C79.5818 32.0525 78.5794 30.6784 77.3197 29.5317C76.06 28.3849 74.5689 27.4889 72.9348 26.897C71.3008 26.305 69.5572 26.0291 67.8078 26.0857C66.0584 26.1423 64.3388 26.5302 62.7513 27.2264C61.1637 27.9227 59.7407 28.9129 58.5667 30.1384C57.3927 31.3639 56.4918 32.7996 55.9174 34.3601C54.9683 36.9389 57.611 39.0717 60.5512 38.8864L68.2526 38.401L75.9728 38.3875Z" fill="white"/>
<path d="M74.5315 42.302C74.5397 46.9471 67.3189 50.7253 58.4035 50.7408C49.488 50.7564 42.2541 47.0035 42.246 42.3584C42.2379 37.7133 49.4587 33.9351 58.3741 33.9196C67.2895 33.904 74.5234 37.6569 74.5315 42.302Z" fill="white"/>
<path d="M39.1544 38.4518C39.1515 36.7999 38.7967 35.1656 38.1111 33.6459C37.4255 32.1261 36.4231 30.7521 35.1634 29.6053C33.9037 28.4586 32.4126 27.5626 30.7785 26.9706C29.1445 26.3786 27.4009 26.1027 25.6515 26.1593C23.902 26.2159 22.1825 26.6039 20.5949 27.3001C19.0074 27.9963 17.5844 28.9866 16.4104 30.2121C15.2364 31.4375 14.3355 32.8732 13.7611 34.4337C13.1868 35.9942 12.9507 37.6477 13.067 39.2958L26.0963 38.4746L39.1544 38.4518Z" fill="white"/>
<path d="M92.8335 42.27C92.8417 46.9151 85.6209 50.6933 76.7055 50.7089C67.79 50.7244 60.5561 46.9715 60.548 42.3264C60.5399 37.6814 67.7607 33.9032 76.6761 33.8876C85.5915 33.872 92.8254 37.625 92.8335 42.27Z" fill="white"/>
</g>
</g>
</g>
<defs>
<filter id="filter0_dd_2_71" x="-3.89427" y="0.141953" width="103.828" height="67.8624" filterUnits="userSpaceOnUse" color-interpolation-filters="sRGB">
<feFlood flood-opacity="0" result="BackgroundImageFix"/>
<feColorMatrix in="SourceAlpha" type="matrix" values="0 0 0 0 0 0 0 0 0 0 0 0 0 0 0 0 0 0 127 0" result="hardAlpha"/>
<feOffset dy="4"/>
<feGaussianBlur stdDeviation="2"/>
<feColorMatrix type="matrix" values="0 0 0 0 0 0 0 0 0 0 0 0 0 0 0 0 0 0 0.25 0"/>
<feBlend mode="normal" in2="BackgroundImageFix" result="effect1_dropShadow_2_71"/>
<feColorMatrix in="SourceAlpha" type="matrix" values="0 0 0 0 0 0 0 0 0 0 0 0 0 0 0 0 0 0 127 0" result="hardAlpha"/>
<feOffset dy="4"/>
<feGaussianBlur stdDeviation="2"/>
<feColorMatrix type="matrix" values="0 0 0 0 0 0 0 0 0 0 0 0 0 0 0 0 0 0 0.25 0"/>
<feBlend mode="normal" in2="effect1_dropShadow_2_71" result="effect2_dropShadow_2_71"/>
<feBlend mode="normal" in="SourceGraphic" in2="effect2_dropShadow_2_71" result="shape"/>
</filter>
<filter id="filter1_di_2_71" x="8.97693" y="0.141953" width="69.0305" height="52.7046" filterUnits="userSpaceOnUse" color-interpolation-filters="sRGB">
<feFlood flood-opacity="0" result="BackgroundImageFix"/>
<feColorMatrix in="SourceAlpha" type="matrix" values="0 0 0 0 0 0 0 0 0 0 0 0 0 0 0 0 0 0 127 0" result="hardAlpha"/>
<feOffset dy="4"/>
<feGaussianBlur stdDeviation="2"/>
<feColorMatrix type="matrix" values="0 0 0 0 0 0 0 0 0 0 0 0 0 0 0 0 0 0 0.25 0"/>
<feBlend mode="normal" in2="BackgroundImageFix" result="effect1_dropShadow_2_71"/>
<feBlend mode="normal" in="SourceGraphic" in2="effect1_dropShadow_2_71" result="shape"/>
<feColorMatrix in="SourceAlpha" type="matrix" values="0 0 0 0 0 0 0 0 0 0 0 0 0 0 0 0 0 0 127 0" result="hardAlpha"/>
<feOffset dy="4"/>
<feGaussianBlur stdDeviation="2"/>
<feComposite in2="hardAlpha" operator="arithmetic" k2="-1" k3="1"/>
<feColorMatrix type="matrix" values="0 0 0 0 0 0 0 0 0 0 0 0 0 0 0 0 0 0 0.25 0"/>
<feBlend mode="normal" in2="shape" result="effect2_innerShadow_2_71"/>
</filter>
<filter id="filter2_b_2_71" x="-3.89427" y="20.5518" width="103.828" height="43.4526" filterUnits="userSpaceOnUse" color-interpolation-filters="sRGB">
<feFlood flood-opacity="0" result="BackgroundImageFix"/>
<feGaussianBlur in="BackgroundImage" stdDeviation="2"/>
<feComposite in2="SourceAlpha" operator="in" result="effect1_backgroundBlur_2_71"/>
<feBlend mode="normal" in="SourceGraphic" in2="effect1_backgroundBlur_2_71" result="shape"/>
</filter>
<clipPath id="clip0_2_71">
<rect width="221" height="65.64" fill="white"/>
</clipPath>
</defs>
</svg>
