<svg width="51" height="52" viewBox="0 0 51 52" fill="none" xmlns="http://www.w3.org/2000/svg">
<g clip-path="url(#clip0_2_189)">
<g clip-path="url(#clip1_2_189)">
<path d="M10 1H12.2888V3.45323H14.3984V1H16.6872V8.42424H14.3984V5.94949H12.3087V8.42424H10V1ZM19.7123 3.47475H17.6923V1H24.0312V3.47475H22.0011V8.42424H19.7123V3.47475ZM25.0362 1H27.4345L28.9072 3.61462L30.38 1H32.7782V8.42424H30.4895V4.7444L28.8873 7.41282L27.2852 4.7444V8.42424H25.0362V1ZM33.9127 1H36.2014V5.97101H39.4455V8.42424H33.9127" fill="black"/>
<path d="M10.7075 47.6785L7.42357 7.82433H43.5264L40.2425 47.657L25.4451 52.09" fill="#E44D26"/>
<path d="M25.475 48.7007V11.0953H40.2326L37.4164 45.0961" fill="#F16529"/>
<path d="M14.1307 15.9695H25.475V20.8544H19.0863L19.5043 25.8577H25.475V30.7319H15.3646L14.1307 15.9695ZM15.5636 33.1851H20.1014L20.4198 37.0909L25.475 38.5542V43.6544L16.2005 40.8568" fill="#EBEBEB"/>
<path d="M36.7796 15.9695H25.4551V20.8544H36.3616L36.7796 15.9695ZM35.9536 25.8577H25.4551V30.7426H31.0278L30.5004 37.0909L25.4551 38.5542V43.6328L34.7097 40.8568" fill="white"/>
</g>
</g>
<defs>
<clipPath id="clip0_2_189">
<rect width="50.626" height="51.773" fill="white"/>
</clipPath>
<clipPath id="clip1_2_189">
<rect width="50.95" height="55.09" fill="white" transform="translate(0 -3)"/>
</clipPath>
</defs>
</svg>
