<svg width="51" height="56" viewBox="0 0 51 56" fill="none" xmlns="http://www.w3.org/2000/svg">
<g clip-path="url(#clip0_2_270)">
<g clip-path="url(#clip1_2_270)">
<path d="M50.95 11.8265L46.3083 51.659L25.4438 56.09L4.63677 51.6653L7.62939e-06 11.8265H50.95Z" fill="#264DE4"/>
<path d="M42.3345 49.1226L46.3012 15.0839H25.475V52.7032L42.3345 49.1226Z" fill="#2965F1"/>
<path d="M10.6297 29.8595L11.2014 34.7455H25.475V29.8595H10.6297Z" fill="#EBEBEB"/>
<path d="M25.475 19.97H25.453H9.48099L10.0608 24.8561H25.475V19.97Z" fill="#EBEBEB"/>
<path d="M25.475 47.6327V42.5491L25.447 42.5548L18.3434 41.0855L17.8893 37.1886H14.4374H11.4863L12.38 44.8604L25.4456 47.6389L25.475 47.6327Z" fill="#EBEBEB"/>
<path d="M11.9907 1H19.7161V3.47475H15.2213V5.94949H19.7161V8.42424H11.9907V1Z" fill="black"/>
<path d="M21.2612 1H28.9865V3.15195H24.4918V3.58234H28.9865V8.53184H21.2612V6.27229H25.7559V5.84189H21.2612V1Z" fill="black"/>
<path d="M30.5316 1H38.257V3.15195H33.7622V3.58234H38.257V8.53184H30.5316V6.27229H35.0264V5.84189H30.5316V1Z" fill="black"/>
<path d="M33.3073 34.7455L32.5669 41.0824L25.453 42.5532V47.6366L38.529 44.8605L38.625 44.035L40.1238 31.1716L40.2795 29.8595L41.431 19.97H25.453V24.8561H34.4408L33.8604 29.8595H25.453V34.7455H33.3073Z" fill="white"/>
</g>
</g>
<defs>
<clipPath id="clip0_2_270">
<rect width="50.947" height="55.087" fill="white"/>
</clipPath>
<clipPath id="clip1_2_270">
<rect width="50.95" height="55.09" fill="white" transform="translate(0 1)"/>
</clipPath>
</defs>
</svg>
