<svg width="49" height="39" viewBox="0 0 49 39" fill="none" xmlns="http://www.w3.org/2000/svg">
<g clip-path="url(#clip0_2_253)">
<path d="M24.2287 0C11.4001 0 1 8.75522 1 19.5551C1 30.3555 11.4001 39.11 24.2287 39.11C37.0587 39.11 47.4577 30.3555 47.4577 19.5551C47.4577 8.75592 37.0587 0.00093406 24.2284 0.00093406L24.2287 0V0ZM34.8813 28.2041C34.4652 28.7785 33.572 28.9607 32.8897 28.6081C27.4358 25.8035 20.5701 25.1684 12.4844 26.7236C11.7052 26.8731 10.9286 26.4621 10.7511 25.8059C10.5727 25.1497 11.0589 24.4959 11.84 24.3464C20.6885 22.6438 28.2785 23.3773 34.4014 26.5274C35.0837 26.8801 35.3001 27.6296 34.8813 28.2041V28.2041ZM37.7244 22.8788C37.2002 23.5968 36.0851 23.8233 35.2335 23.382C28.9897 20.1503 19.4719 19.2147 12.0866 21.1019C11.1288 21.3455 10.1172 20.8911 9.82654 20.0861C9.53806 19.2798 10.0781 18.4298 11.0343 18.1846C19.4702 16.0297 29.9577 17.0735 37.128 20.7829C37.9796 21.2243 38.2487 22.163 37.7244 22.879V22.8788ZM37.9685 17.3341C30.482 13.5906 18.1302 13.2464 10.9824 15.0728C9.83458 15.3658 8.62076 14.8203 8.27293 13.8541C7.92509 12.8873 8.5725 11.8661 9.72114 11.5724C17.9263 9.47539 31.5666 9.88054 40.1859 14.1882C41.2205 14.7041 41.5589 15.8266 40.9459 16.6945C40.3357 17.5637 38.9987 17.8502 37.9696 17.3341H37.9685Z" fill="#1ED760"/>
</g>
<defs>
<clipPath id="clip0_2_253">
<rect width="49" height="39" fill="white"/>
</clipPath>
</defs>
</svg>
