<svg width="66" height="47" viewBox="0 0 66 47" fill="none" xmlns="http://www.w3.org/2000/svg">
<g clip-path="url(#clip0_2_305)">
<path d="M65.328 21.1664C65.4179 21.8719 65.48 22.5837 65.48 23.3063C65.48 22.5837 65.4179 21.8725 65.328 21.1664Z" fill="#56676E"/>
<path d="M16.7562 21.0433C16.7562 21.0433 7.65118 44.9221 44.1448 45.1299C55.5948 42.096 64.032 34.6576 65.3107 25.6898C65.399 25.0695 65.4253 24.4368 65.445 23.803C65.4487 23.6362 65.48 23.4741 65.48 23.3063C65.48 22.5842 65.418 21.8719 65.3282 21.1664C55.6868 48.1826 13.0339 37.6007 16.7562 21.0433Z" fill="#56676E"/>
<path d="M35.6261 12.1799C35.6261 12.1799 1.64835 5.42578 2.17093 31.7972C3.91266 34.984 6.61563 37.86 10.0892 40.2221C10.2351 40.3203 10.3862 40.4133 10.5336 40.5099C11.5161 41.1547 12.553 41.7562 13.6384 42.3111C13.807 42.3968 13.9654 42.4914 14.1348 42.575C15.2829 43.1339 16.4801 43.6399 17.7191 44.0899C18.0789 44.2218 18.4489 44.3424 18.8139 44.4655C19.88 44.8228 20.9728 45.1384 22.0873 45.411C22.361 45.4775 22.6223 45.5606 22.8996 45.6224C24.2357 45.9132 25.5968 46.1423 26.9744 46.3082C27.3912 46.3602 27.8123 46.4038 28.2341 46.4454C29.6633 46.5923 31.1045 46.6719 32.5483 46.6838C32.6038 46.6838 32.6571 46.69 32.7125 46.69C33.8015 46.69 34.8766 46.6485 35.9371 46.5742C-2.18632 40.1026 12.3043 9.75902 35.6261 12.1799Z" fill="#56676E"/>
<path d="M48.8699 24.6861C48.8699 24.6861 56.9085 0.563158 20.7236 1.64062C8.5897 5.05225 0 13.4559 0 23.3042C0.0112836 24.3648 0.123697 25.4236 0.336465 26.4733C7.95181 -0.818743 51.3368 8.02022 48.8699 24.6861Z" fill="#56676E"/>
<path d="M31.4956 35.067C31.4956 35.067 65.5327 38.2298 63.4023 15.1952C58.7698 6.32869 46.8088 0 32.74 0C30.7479 0.00547977 28.7605 0.139894 26.8026 0.401582C64.7292 3.71554 54.8716 35.3029 31.4956 35.067Z" fill="#56676E"/>
<path d="M42.1889 23.3068C42.1889 24.598 41.6509 25.8601 40.6431 26.9336C39.6353 28.0071 38.2028 28.8438 36.5269 29.3378C34.851 29.8318 33.0069 29.961 31.2279 29.7089C29.4489 29.4569 27.8148 28.835 26.5324 27.9219C25.25 27.0087 24.3768 25.8454 24.0232 24.579C23.6697 23.3127 23.8517 22.0001 24.5463 20.8074C25.2409 19.6146 26.4167 18.5953 27.9252 17.8783C29.4338 17.1613 31.2071 16.7788 33.021 16.7792C35.4528 16.7796 37.7848 17.4675 39.5041 18.6917C41.2233 19.9158 42.1891 21.5759 42.1889 23.3068V23.3068Z" fill="#4E4F50"/>
</g>
<defs>
<clipPath id="clip0_2_305">
<rect width="65.484" height="46.692" fill="white"/>
</clipPath>
</defs>
</svg>
