<svg width="66" height="82" viewBox="0 0 66 82" fill="none" xmlns="http://www.w3.org/2000/svg">
<path d="M11.9265 10.8781V54.8781H55.9265V10.8781H11.9265ZM15.9265 14.8781H51.9265V50.8781H15.9265V14.8781ZM26.9265 18.8781C26.1315 18.8792 25.3695 19.1957 24.8077 19.7582C24.2459 20.3207 23.9304 21.0832 23.9304 21.8781C23.9304 21.8781 23.9265 21.8781 23.9265 21.8781V44.8781C23.9265 45.9821 24.8225 46.8781 25.9265 46.8781C27.0305 46.8781 27.9265 45.9821 27.9265 44.8781V36.3664C29.49 35.7895 31.2169 35.3469 32.8835 35.3469C36.0415 35.3469 37.2652 36.9797 39.8952 36.9797C41.7732 36.9797 43.523 36.3438 45.157 35.6398C45.567 35.4638 45.9187 35.2881 45.9187 34.8781H45.9304V23.6398C45.9304 23.2298 45.5176 22.8781 45.0476 22.8781C44.4596 22.8781 42.0059 24.4523 39.7859 24.4523C39.3259 24.4523 38.9146 24.394 38.5046 24.218C36.5186 23.464 34.7676 22.8781 32.5476 22.8781C31.568 22.8781 30.5647 23.0325 29.5827 23.2688C29.8219 22.8117 29.9391 22.3006 29.9231 21.785C29.907 21.2694 29.7584 20.7666 29.4913 20.3252C29.2243 19.8839 28.848 19.5188 28.3987 19.2653C27.9494 19.0118 27.4423 18.8785 26.9265 18.8781V18.8781Z" fill="black"/>
</svg>
