<svg width="52" height="44" viewBox="0 0 52 44" fill="none" xmlns="http://www.w3.org/2000/svg">
<g clip-path="url(#clip0_2_230)">
<g clip-path="url(#clip1_2_230)">
<path d="M-0.323026 14.052C-0.417915 14.052 -0.441638 13.9395 -0.394193 13.7707L0.103978 12.2517C0.151423 12.0829 0.270035 11.9704 0.364925 11.9704H8.83383C8.92872 11.9704 8.95244 12.1392 8.905 12.308L8.50172 13.7707C8.45427 13.9395 8.33566 14.1083 8.26449 14.1083L-0.323026 14.052Z" fill="#00ACD7"/>
<path d="M-3.90511 19.2278C-4 19.2278 -4.02372 19.1153 -3.97628 18.9465L-3.47811 17.4275C-3.43066 17.2587 -3.31205 17.1462 -3.21716 17.1462H7.60027C7.69516 17.1462 7.7426 17.315 7.71888 17.4838L7.5291 18.834C7.50538 19.059 7.41049 19.1715 7.3156 19.1715L-3.90511 19.2278Z" fill="#00ACD7"/>
<path d="M1.83572 24.4036C1.74083 24.4036 1.7171 24.2348 1.76455 24.066L2.09666 22.6595C2.14411 22.4908 2.239 22.322 2.33389 22.322H7.07837C7.17326 22.322 7.22071 22.4908 7.22071 22.7158L7.17326 24.066C7.17326 24.291 7.07837 24.4598 7.00721 24.4598L1.83572 24.4036Z" fill="#00ACD7"/>
<path d="M26.4596 13.0393C24.9651 13.9395 23.945 14.6146 22.4742 15.5147C22.1184 15.7397 22.0947 15.796 21.7863 14.9521C21.4304 13.9957 21.1695 13.3769 20.6713 12.8143C19.1768 11.0703 17.7297 11.5766 16.3776 13.6582C14.7644 16.1336 13.9342 19.7904 13.9579 24.3473C13.9816 28.848 15.2863 32.5611 17.1604 33.1799C18.7735 33.6862 20.1257 32.336 21.1932 29.4668C21.4067 28.848 21.5965 28.1729 21.8337 27.3853C20.9797 27.3853 19.9122 27.3853 17.2553 27.3853C16.7571 27.3853 16.6385 26.6539 16.8046 25.6975C17.113 23.9535 17.6823 21.028 18.0144 19.5653C18.0856 19.2278 18.2516 18.6652 18.6075 18.6652C19.8173 18.6652 24.2771 18.6652 27.2424 18.6652C27.195 20.1842 27.195 21.7032 27.1001 23.2221C26.8392 27.2728 26.1987 30.9858 25.1549 34.2488C23.4469 39.5934 21.2169 42.9126 18.394 43.8128C16.0692 44.5441 13.9104 43.4752 12.0126 40.0997C10.2572 36.9492 9.26084 32.7861 8.99989 27.6103C8.6915 21.4781 9.45062 15.9648 11.0163 11.1265C12.7006 5.89449 14.9305 2.57523 17.6586 1.3938C19.8885 0.437408 22.0235 1.05625 23.945 4.15047C25.2023 6.11952 26.1038 8.81994 26.6968 12.0829C26.8392 12.5893 26.7443 12.8706 26.4596 13.0393Z" fill="#00ACD7"/>
<path d="M34.3117 44.1503C32.153 44.0378 30.184 42.5751 28.5235 39.1996C27.1238 36.3304 26.2461 32.6736 25.9614 28.3417C25.5344 21.9845 26.2698 16.3586 27.8829 11.3516C29.6147 5.95077 31.7023 3.13784 34.5252 1.95641C36.9449 0.943756 39.2223 1.50634 41.2861 4.8256C43.1602 7.86356 44.3226 11.9704 44.631 17.3713C45.0343 24.9662 44.1091 31.1546 41.9029 36.4429C40.3372 40.2122 38.4157 42.5751 36.2095 43.644C35.569 43.9253 34.9285 43.9816 34.3117 44.1503ZM39.9577 21.4219C39.9339 20.6905 39.9339 20.1279 39.8865 19.5653C39.4595 13.9957 37.3008 10.8453 35.0471 12.083C32.8409 13.2644 31.4176 16.5836 30.8957 21.8719C30.4687 26.2601 31.3701 30.7045 33.0782 32.5048C34.3829 33.855 35.6876 33.6862 36.9449 32.1673C38.819 29.8607 39.8391 26.2601 39.9577 21.4219Z" fill="#00ACD7"/>
</g>
</g>
<defs>
<clipPath id="clip0_2_230">
<rect width="52" height="44" fill="white"/>
</clipPath>
<clipPath id="clip1_2_230">
<rect width="51.91" height="43.3" fill="white" transform="translate(-4 1)"/>
</clipPath>
</defs>
</svg>
