<svg width="31" height="25" viewBox="0 0 31 25" fill="none" xmlns="http://www.w3.org/2000/svg">
<g clip-path="url(#clip0_2_67)">
<path d="M30.108 2.919C29.8943 3.24805 29.6605 3.56365 29.408 3.864C28.756 4.6721 27.9986 5.38915 27.156 5.996L27.051 6.196C27.0805 7.10885 27.0351 8.0226 26.915 8.928C26.6658 10.8304 26.1188 12.6817 25.294 14.414C24.4428 16.2038 23.3052 17.8427 21.926 19.266C19.626 21.655 16.6635 23.3006 13.42 23.991C12.2885 24.2285 11.1378 24.3624 9.98199 24.391C9.79599 24.397 9.611 24.399 9.427 24.399C6.14529 24.4124 2.92781 23.4896 0.152008 21.739L0.00302124 21.647C0.483909 21.6994 0.967281 21.7258 1.45102 21.726C3.07069 21.7278 4.67531 21.4153 6.17599 20.806C7.23122 20.3735 8.22079 19.7955 9.116 19.089C7.83805 19.0619 6.60078 18.6348 5.57828 17.8678C4.55578 17.1007 3.79955 16.0323 3.41602 14.813C3.79286 14.8869 4.17597 14.9241 4.56 14.924C5.06364 14.9224 5.5654 14.862 6.05502 14.744L6.14801 14.698C5.32515 14.5294 4.54645 14.1913 3.86154 13.705C3.17663 13.2188 2.60054 12.5952 2.17001 11.874C1.56617 10.8909 1.25886 9.75443 1.285 8.601C2.12622 9.05978 3.06418 9.31269 4.022 9.339C2.74306 8.45728 1.84694 7.12255 1.51501 5.605C1.16577 4.08332 1.41646 2.48557 2.215 1.144C3.75464 3.04432 5.67647 4.59988 7.85587 5.70982C10.0353 6.81976 12.4236 7.45931 14.866 7.587C14.833 7.333 14.8 7.126 14.766 6.907C14.5918 5.49711 14.9254 4.07127 15.707 2.885C16.1591 2.14125 16.769 1.50592 17.4938 1.02397C18.2185 0.542023 19.0403 0.22523 19.901 0.0960007C20.2713 0.0317492 20.6462 -0.00169719 21.022 -0.0039978C21.8171 -0.00211928 22.6037 0.159313 23.3353 0.470734C24.0669 0.782154 24.7285 1.23722 25.281 1.809C25.3402 1.87079 25.4215 1.90673 25.507 1.909C25.5408 1.90906 25.5744 1.90469 25.607 1.896C26.8721 1.63273 28.0873 1.16995 29.207 0.525002L29.288 0.478004C28.8482 1.87537 27.9181 3.0666 26.669 3.832C27.8546 3.70164 29.0139 3.39387 30.108 2.919V2.919Z" fill="black"/>
</g>
<defs>
<clipPath id="clip0_2_67">
<rect width="30.108" height="24.398" fill="white"/>
</clipPath>
</defs>
</svg>
