<svg width="33" height="23" viewBox="0 0 33 23" fill="none" xmlns="http://www.w3.org/2000/svg">
<g clip-path="url(#clip0_2_30)">
<path d="M31.207 2.909C32.353 5.932 32.307 16.944 30.928 19.855C30.5557 20.6154 29.9431 21.2319 29.185 21.609C28.106 22.167 21.842 22.43 15.705 22.43C10.055 22.43 4.514 22.207 3.217 21.784C2.64792 21.6107 2.12879 21.3033 1.70331 20.8875C1.27782 20.4718 0.95843 19.9599 0.772003 19.395C-0.262997 16.471 -0.492998 4.228 1.578 1.814C2.25208 1.00657 3.21705 0.497138 4.264 0.396004C6.726 0.130004 11.476 -0.0039978 16.164 -0.0039978C21.997 -0.0039978 27.728 0.196008 28.816 0.596008C29.3648 0.773111 29.8658 1.0737 30.2803 1.47468C30.6948 1.87565 31.0118 2.36634 31.207 2.909V2.909ZM12.033 16.048C15.356 14.318 18.666 12.614 22.013 10.884C18.692 9.142 15.408 7.42601 12.113 5.69601C12.086 9.15501 12.06 12.577 12.034 16.048" fill="black"/>
</g>
<defs>
<clipPath id="clip0_2_30">
<rect width="32.018" height="22.43" fill="white"/>
</clipPath>
</defs>
</svg>
